<?xml version="1.0" standalone="no"?>
<!DOCTYPE svg PUBLIC "-//W3C//DTD SVG 20010904//EN"
 "http://www.w3.org/TR/2001/REC-SVG-20010904/DTD/svg10.dtd">
<svg version="1.0" xmlns="http://www.w3.org/2000/svg"
 width="332.000000pt" height="332.000000pt" viewBox="0 0 332.000000 332.000000"
 preserveAspectRatio="xMidYMid meet">
<metadata>
Created by potrace 1.11, written by Peter Selinger 2001-2013
</metadata>
<g transform="translate(0.000000,332.000000) scale(0.100000,-0.100000)"
fill="#000000" stroke="none">
<path d="M1195 3022 c-3 -4 -149 -8 -323 -9 -174 -1 -328 -5 -342 -11 -21 -7
-145 -10 -145 -2 0 4 -64 9 -192 13 -112 4 -135 2 -157 -13 l-27 -17 -1 -1357
c0 -938 3 -1361 10 -1368 14 -14 3270 -14 3284 0 7 7 10 250 10 729 -1 395 -1
1007 -1 1359 l-1 641 -62 6 c-35 3 -72 8 -83 10 -11 3 -26 -1 -34 -7 -12 -9
-13 -8 -7 3 7 11 -1 12 -40 7 -136 -19 -180 -18 -219 2 -34 19 -51 20 -175 17
-75 -3 -148 -8 -161 -13 -13 -4 -42 -7 -64 -6 -142 8 -444 5 -463 -5 -30 -16
-70 -14 -127 8 -45 17 -72 19 -260 15 -115 -3 -248 -6 -295 -8 -47 -2 -92 0
-101 5 -9 5 -20 5 -24 1z"/>
</g>
</svg>
